<?xml version="1.0" encoding="utf-8"?>
<!-- Generator: Adobe Illustrator 16.0.0, SVG Export Plug-In . SVG Version: 6.00 Build 0)  -->
<!DOCTYPE svg PUBLIC "-//W3C//DTD SVG 1.1//EN" "http://www.w3.org/Graphics/SVG/1.1/DTD/svg11.dtd">
<svg version="1.1" id="Layer_1" xmlns="http://www.w3.org/2000/svg" xmlns:xlink="http://www.w3.org/1999/xlink" x="0px" y="0px"
	 width="90.667px" height="20px" viewBox="0 0 90.667 20" enable-background="new 0 0 90.667 20" xml:space="preserve">
<g>
	<defs>
		<path id="SVGID_1_" d="M2.061,0h86.546c1.138,0,2.061,1.343,2.061,3v14c0,1.656-0.923,3-2.061,3H2.061C0.923,20,0,18.656,0,17V3
			C0,1.343,0.923,0,2.061,0z"/>
	</defs>
	<clipPath id="SVGID_2_">
		<use xlink:href="#SVGID_1_"  overflow="visible"/>
	</clipPath>
	<g clip-path="url(#SVGID_2_)">
		<path fill="#555555" d="M0,0h61v20H0V0z"/>
		<path fill="#4BC51D" d="M60.667,0h30v20h-30V0z"/>
		
			<linearGradient id="SVGID_3_" gradientUnits="userSpaceOnUse" x1="-82.1865" y1="249.3418" x2="-82.1865" y2="248.3418" gradientTransform="matrix(132 0 0 -20 10914 4964.5)">
			<stop  offset="0" style="stop-color:#BBBBBB;stop-opacity:0.1"/>
			<stop  offset="1" style="stop-color:#000000;stop-opacity:0.1"/>
		</linearGradient>
		<path fill="url(#SVGID_3_)" d="M-0.672-22.333h132v20h-132V-22.333z"/>
	</g>
</g>
<g>
	<g enable-background="new    ">
		<text transform="matrix(1 0 0 1 8.0225 15)" fill="#010101" font-family="'Verdana'" font-size="11">Version</text>
	</g>
	<text transform="matrix(1 0 0 1 8.0225 14)" fill="#FFFFFF" font-family="'Verdana'" font-size="11">Version</text>
	<g enable-background="new    ">
		<text transform="matrix(1 0 0 1 65.3281 15)" fill="#010101" font-family="'Verdana'" font-size="11">1.0</text>
	</g>
	<text transform="matrix(1 0 0 1 65.3281 14)" fill="#FFFFFF" font-family="'Verdana'" font-size="11">1.0</text>
</g>
</svg>
